<svg width="250" height="218" viewBox="0 0 250 218" fill="none" xmlns="http://www.w3.org/2000/svg">
<g filter="url(#filter0_f_2_122)">
<ellipse cx="156.362" cy="74.2993" rx="30.0987" ry="30.2993" fill="#FFC701" fill-opacity="0.5"/>
</g>
<path d="M184.474 75.2927C184.474 90.9319 171.881 103.599 156.362 103.599C140.842 103.599 128.25 90.9319 128.25 75.2927C128.25 59.6535 140.842 46.9868 156.362 46.9868C171.881 46.9868 184.474 59.6535 184.474 75.2927Z" fill="url(#paint0_linear_2_122)" stroke="url(#paint1_linear_2_122)" stroke-width="2"/>
<mask id="mask0_2_122" style="mask-type:alpha" maskUnits="userSpaceOnUse" x="127" y="62" width="59" height="43">
<path d="M185.474 75.2927C185.474 91.4779 172.44 104.599 156.362 104.599C140.284 104.599 127.25 91.4779 127.25 75.2927C127.25 59.1075 138.063 62.875 154.141 62.875C170.219 62.875 185.474 59.1075 185.474 75.2927Z" fill="url(#paint2_linear_2_122)"/>
</mask>
<g mask="url(#mask0_2_122)">
<g filter="url(#filter1_f_2_122)">
<path fill-rule="evenodd" clip-rule="evenodd" d="M179.306 150.295C179.388 150.296 179.47 150.296 179.553 150.296C191.271 150.296 200.77 140.734 200.77 128.938C200.77 117.142 191.271 107.579 179.553 107.579C179.47 107.579 179.388 107.579 179.306 107.58V107.579H165.78C166.076 105.802 166.23 103.977 166.23 102.115C166.23 84.0096 151.65 69.3322 133.664 69.3322C115.679 69.3322 101.099 84.0096 101.099 102.115C101.099 104.049 101.265 105.944 101.584 107.786C91.2716 109.24 83.3355 118.156 83.3355 128.938C83.3355 140.734 92.8347 150.296 104.553 150.296C104.635 150.296 104.718 150.296 104.8 150.295L104.799 150.296H179.306V150.295Z" fill="#E18700"/>
</g>
</g>
<g filter="url(#filter2_bd_2_122)">
<mask id="path-5-inside-1_2_122" fill="white">
<path fill-rule="evenodd" clip-rule="evenodd" d="M166.97 152.778C167.053 152.779 167.135 152.78 167.217 152.78C178.935 152.78 188.434 143.217 188.434 131.421C188.434 119.625 178.935 110.062 167.217 110.062C167.135 110.062 167.053 110.063 166.97 110.064V110.062H161.489C161.687 108.601 161.789 107.108 161.789 105.592C161.789 87.4866 147.209 72.8092 129.224 72.8092C111.238 72.8092 96.6579 87.4866 96.6579 105.592C96.6579 107.3 96.7877 108.978 97.0379 110.616C95.4892 110.254 93.8754 110.062 92.2171 110.062C80.4992 110.062 71 119.625 71 131.421C71 143.217 80.4992 152.78 92.2171 152.78C92.2998 152.78 92.3824 152.779 92.4649 152.778L92.4638 152.78H166.97V152.778Z"/>
</mask>
<path fill-rule="evenodd" clip-rule="evenodd" d="M166.97 152.778C167.053 152.779 167.135 152.78 167.217 152.78C178.935 152.78 188.434 143.217 188.434 131.421C188.434 119.625 178.935 110.062 167.217 110.062C167.135 110.062 167.053 110.063 166.97 110.064V110.062H161.489C161.687 108.601 161.789 107.108 161.789 105.592C161.789 87.4866 147.209 72.8092 129.224 72.8092C111.238 72.8092 96.6579 87.4866 96.6579 105.592C96.6579 107.3 96.7877 108.978 97.0379 110.616C95.4892 110.254 93.8754 110.062 92.2171 110.062C80.4992 110.062 71 119.625 71 131.421C71 143.217 80.4992 152.78 92.2171 152.78C92.2998 152.78 92.3824 152.779 92.4649 152.778L92.4638 152.78H166.97V152.778Z" fill="url(#paint3_linear_2_122)" shape-rendering="crispEdges"/>
<path d="M166.97 152.778L166.993 150.778C166.459 150.772 165.944 150.98 165.564 151.356C165.184 151.732 164.97 152.244 164.97 152.778H166.97ZM166.97 110.064H164.97C164.97 110.598 165.184 111.111 165.564 111.486C165.944 111.862 166.459 112.07 166.993 112.064L166.97 110.064ZM166.97 110.062H168.97C168.97 108.958 168.075 108.062 166.97 108.062V110.062ZM161.489 110.062L159.507 109.794C159.43 110.366 159.603 110.944 159.983 111.378C160.363 111.813 160.912 112.062 161.489 112.062V110.062ZM97.0379 110.616L96.5825 112.564C97.229 112.715 97.9084 112.535 98.3958 112.085C98.8833 111.634 99.1153 110.971 99.015 110.314L97.0379 110.616ZM92.4649 152.778L94.0393 154.012C94.5138 153.406 94.5988 152.582 94.258 151.892C93.9172 151.203 93.2111 150.769 92.4418 150.778L92.4649 152.778ZM92.4638 152.78L90.8894 151.546C90.4176 152.148 90.3307 152.967 90.6656 153.655C91.0006 154.343 91.6987 154.78 92.4638 154.78V152.78ZM166.97 152.78V154.78C168.075 154.78 168.97 153.884 168.97 152.78H166.97ZM166.948 154.778C167.037 154.779 167.127 154.78 167.217 154.78V150.78C167.142 150.78 167.068 150.779 166.993 150.778L166.948 154.778ZM167.217 154.78C180.052 154.78 190.434 144.309 190.434 131.421H186.434C186.434 142.125 177.818 150.78 167.217 150.78V154.78ZM190.434 131.421C190.434 118.533 180.052 108.062 167.217 108.062V112.062C177.818 112.062 186.434 120.717 186.434 131.421H190.434ZM167.217 108.062C167.127 108.062 167.037 108.063 166.947 108.064L166.993 112.064C167.068 112.063 167.142 112.062 167.217 112.062V108.062ZM164.97 110.062V110.064H168.97V110.062H164.97ZM161.489 112.062H166.97V108.062H161.489V112.062ZM163.471 110.331C163.681 108.781 163.789 107.199 163.789 105.592H159.789C159.789 107.018 159.693 108.421 159.507 109.794L163.471 110.331ZM163.789 105.592C163.789 86.3946 148.326 70.8092 129.224 70.8092V74.8092C146.092 74.8092 159.789 88.5786 159.789 105.592H163.789ZM129.224 70.8092C110.121 70.8092 94.6579 86.3946 94.6579 105.592H98.6579C98.6579 88.5786 112.355 74.8092 129.224 74.8092V70.8092ZM94.6579 105.592C94.6579 107.402 94.7954 109.181 95.0609 110.918L99.015 110.314C98.78 108.776 98.6579 107.199 98.6579 105.592H94.6579ZM97.4934 108.669C95.7965 108.272 94.0298 108.062 92.2171 108.062V112.062C93.7209 112.062 95.1819 112.236 96.5825 112.564L97.4934 108.669ZM92.2171 108.062C79.3821 108.062 69 118.533 69 131.421H73C73 120.717 81.6163 112.062 92.2171 112.062V108.062ZM69 131.421C69 144.309 79.3821 154.78 92.2171 154.78V150.78C81.6163 150.78 73 142.125 73 131.421H69ZM92.2171 154.78C92.3074 154.78 92.3978 154.779 92.488 154.778L92.4418 150.778C92.3671 150.779 92.2922 150.78 92.2171 150.78V154.78ZM94.0382 154.013L94.0393 154.012L90.8905 151.545L90.8894 151.546L94.0382 154.013ZM166.97 150.78H92.4638V154.78H166.97V150.78ZM164.97 152.778V152.78H168.97V152.778H164.97Z" fill="url(#paint4_linear_2_122)" mask="url(#path-5-inside-1_2_122)"/>
</g>
<g filter="url(#filter3_bd_2_122)">
<mask id="path-7-inside-2_2_122" fill="white">
<path fill-rule="evenodd" clip-rule="evenodd" d="M205.488 130.602C205.548 130.603 205.607 130.603 205.667 130.603C214.135 130.603 221 123.692 221 115.167C221 106.643 214.135 99.7318 205.667 99.7318C205.607 99.7318 205.548 99.7321 205.488 99.7328V99.7318H201.527C201.67 98.6754 201.744 97.5969 201.744 96.501C201.744 83.4164 191.207 72.8092 178.209 72.8092C165.211 72.8092 154.674 83.4164 154.674 96.501C154.674 97.7357 154.768 98.9482 154.949 100.132C153.83 99.8701 152.663 99.7317 151.465 99.7317C142.997 99.7317 136.132 106.642 136.132 115.167C136.132 123.692 142.997 130.603 151.465 130.603C151.525 130.603 151.584 130.603 151.644 130.602L151.643 130.603H205.488V130.602Z"/>
</mask>
<path fill-rule="evenodd" clip-rule="evenodd" d="M205.488 130.602C205.548 130.603 205.607 130.603 205.667 130.603C214.135 130.603 221 123.692 221 115.167C221 106.643 214.135 99.7318 205.667 99.7318C205.607 99.7318 205.548 99.7321 205.488 99.7328V99.7318H201.527C201.67 98.6754 201.744 97.5969 201.744 96.501C201.744 83.4164 191.207 72.8092 178.209 72.8092C165.211 72.8092 154.674 83.4164 154.674 96.501C154.674 97.7357 154.768 98.9482 154.949 100.132C153.83 99.8701 152.663 99.7317 151.465 99.7317C142.997 99.7317 136.132 106.642 136.132 115.167C136.132 123.692 142.997 130.603 151.465 130.603C151.525 130.603 151.584 130.603 151.644 130.602L151.643 130.603H205.488V130.602Z" fill="url(#paint5_linear_2_122)" shape-rendering="crispEdges"/>
<path d="M205.488 130.602L205.511 128.602C204.977 128.596 204.462 128.804 204.082 129.18C203.702 129.555 203.488 130.068 203.488 130.602H205.488ZM205.488 99.7328H203.488C203.488 100.267 203.702 100.779 204.082 101.155C204.462 101.531 204.977 101.739 205.511 101.733L205.488 99.7328ZM205.488 99.7318H207.488C207.488 98.6272 206.593 97.7318 205.488 97.7318V99.7318ZM201.527 99.7318L199.545 99.4633C199.468 100.035 199.641 100.613 200.021 101.048C200.401 101.482 200.95 101.732 201.527 101.732V99.7318ZM154.949 100.132L154.493 102.079C155.14 102.231 155.819 102.051 156.307 101.6C156.794 101.15 157.026 100.486 156.926 99.8299L154.949 100.132ZM151.644 130.602L153.217 131.837C153.693 131.231 153.778 130.407 153.438 129.717C153.097 129.027 152.391 128.593 151.621 128.602L151.644 130.602ZM151.643 130.603L150.07 129.368C149.597 129.97 149.51 130.789 149.845 131.478C150.179 132.166 150.878 132.603 151.643 132.603V130.603ZM205.488 130.603V132.603C206.593 132.603 207.488 131.708 207.488 130.603H205.488ZM205.465 132.602C205.532 132.603 205.599 132.603 205.667 132.603V128.603C205.615 128.603 205.563 128.603 205.511 128.602L205.465 132.602ZM205.667 132.603C215.252 132.603 223 124.784 223 115.167H219C219 122.6 213.018 128.603 205.667 128.603V132.603ZM223 115.167C223 105.55 215.252 97.7318 205.667 97.7318V101.732C213.018 101.732 219 107.735 219 115.167H223ZM205.667 97.7318C205.599 97.7318 205.532 97.7321 205.465 97.7329L205.511 101.733C205.563 101.732 205.615 101.732 205.667 101.732V97.7318ZM203.488 99.7318V99.7328H207.488V99.7318H203.488ZM201.527 101.732H205.488V97.7318H201.527V101.732ZM203.509 100C203.664 98.8551 203.744 97.6869 203.744 96.501H199.744C199.744 97.5069 199.676 98.4957 199.545 99.4633L203.509 100ZM203.744 96.501C203.744 82.3244 192.324 70.8092 178.209 70.8092V74.8092C190.09 74.8092 199.744 84.5084 199.744 96.501H203.744ZM178.209 70.8092C164.094 70.8092 152.674 82.3244 152.674 96.501H156.674C156.674 84.5084 166.328 74.8092 178.209 74.8092V70.8092ZM152.674 96.501C152.674 97.8371 152.776 99.1507 152.972 100.434L156.926 99.8299C156.76 98.7458 156.674 97.6342 156.674 96.501H152.674ZM155.404 98.1845C154.137 97.888 152.818 97.7317 151.465 97.7317V101.732C152.509 101.732 153.522 101.852 154.493 102.079L155.404 98.1845ZM151.465 97.7317C141.879 97.7317 134.132 105.55 134.132 115.167H138.132C138.132 107.735 144.114 101.732 151.465 101.732V97.7317ZM134.132 115.167C134.132 124.784 141.879 132.603 151.465 132.603V128.603C144.114 128.603 138.132 122.6 138.132 115.167H134.132ZM151.465 132.603C151.532 132.603 151.6 132.603 151.667 132.602L151.621 128.602C151.569 128.603 151.517 128.603 151.465 128.603V132.603ZM153.217 131.838L153.217 131.837L150.071 129.367L150.07 129.368L153.217 131.838ZM205.488 128.603H151.643V132.603H205.488V128.603ZM203.488 130.602V130.603H207.488V130.602H203.488Z" fill="url(#paint6_linear_2_122)" mask="url(#path-7-inside-2_2_122)"/>
</g>
<defs>
<filter id="filter0_f_2_122" x="82.2632" y="0" width="148.197" height="148.599" filterUnits="userSpaceOnUse" color-interpolation-filters="sRGB">
<feFlood flood-opacity="0" result="BackgroundImageFix"/>
<feBlend mode="normal" in="SourceGraphic" in2="BackgroundImageFix" result="shape"/>
<feGaussianBlur stdDeviation="22" result="effect1_foregroundBlur_2_122"/>
</filter>
<filter id="filter1_f_2_122" x="69.3355" y="55.3322" width="145.434" height="108.964" filterUnits="userSpaceOnUse" color-interpolation-filters="sRGB">
<feFlood flood-opacity="0" result="BackgroundImageFix"/>
<feBlend mode="normal" in="SourceGraphic" in2="BackgroundImageFix" result="shape"/>
<feGaussianBlur stdDeviation="7" result="effect1_foregroundBlur_2_122"/>
</filter>
<filter id="filter2_bd_2_122" x="0" y="37.8092" width="217.434" height="179.97" filterUnits="userSpaceOnUse" color-interpolation-filters="sRGB">
<feFlood flood-opacity="0" result="BackgroundImageFix"/>
<feGaussianBlur in="BackgroundImageFix" stdDeviation="7"/>
<feComposite in2="SourceAlpha" operator="in" result="effect1_backgroundBlur_2_122"/>
<feColorMatrix in="SourceAlpha" type="matrix" values="0 0 0 0 0 0 0 0 0 0 0 0 0 0 0 0 0 0 127 0" result="hardAlpha"/>
<feOffset dx="-21" dy="15"/>
<feGaussianBlur stdDeviation="25"/>
<feComposite in2="hardAlpha" operator="out"/>
<feColorMatrix type="matrix" values="0 0 0 0 0.113725 0 0 0 0 0.14902 0 0 0 0 0.27451 0 0 0 0.25 0"/>
<feBlend mode="normal" in2="effect1_backgroundBlur_2_122" result="effect2_dropShadow_2_122"/>
<feBlend mode="normal" in="SourceGraphic" in2="effect2_dropShadow_2_122" result="shape"/>
</filter>
<filter id="filter3_bd_2_122" x="65.1316" y="37.8092" width="184.868" height="157.794" filterUnits="userSpaceOnUse" color-interpolation-filters="sRGB">
<feFlood flood-opacity="0" result="BackgroundImageFix"/>
<feGaussianBlur in="BackgroundImageFix" stdDeviation="7"/>
<feComposite in2="SourceAlpha" operator="in" result="effect1_backgroundBlur_2_122"/>
<feColorMatrix in="SourceAlpha" type="matrix" values="0 0 0 0 0 0 0 0 0 0 0 0 0 0 0 0 0 0 127 0" result="hardAlpha"/>
<feOffset dx="-21" dy="15"/>
<feGaussianBlur stdDeviation="25"/>
<feComposite in2="hardAlpha" operator="out"/>
<feColorMatrix type="matrix" values="0 0 0 0 0.113438 0 0 0 0 0.148981 0 0 0 0 0.275 0 0 0 0.25 0"/>
<feBlend mode="normal" in2="effect1_backgroundBlur_2_122" result="effect2_dropShadow_2_122"/>
<feBlend mode="normal" in="SourceGraphic" in2="effect2_dropShadow_2_122" result="shape"/>
</filter>
<linearGradient id="paint0_linear_2_122" x1="156.362" y1="45.9868" x2="156.362" y2="104.599" gradientUnits="userSpaceOnUse">
<stop stop-color="#FFE600"/>
<stop offset="1" stop-color="#FF7A00"/>
</linearGradient>
<linearGradient id="paint1_linear_2_122" x1="156.362" y1="45.9868" x2="156.362" y2="104.599" gradientUnits="userSpaceOnUse">
<stop stop-color="white"/>
<stop offset="1" stop-color="white" stop-opacity="0"/>
</linearGradient>
<linearGradient id="paint2_linear_2_122" x1="156.362" y1="45.9868" x2="156.362" y2="104.599" gradientUnits="userSpaceOnUse">
<stop stop-color="#FFD600"/>
<stop offset="1" stop-color="#FF7A00"/>
</linearGradient>
<linearGradient id="paint3_linear_2_122" x1="129.717" y1="47.2286" x2="129.717" y2="163.956" gradientUnits="userSpaceOnUse">
<stop stop-color="white"/>
<stop offset="1" stop-color="white" stop-opacity="0"/>
</linearGradient>
<linearGradient id="paint4_linear_2_122" x1="129.717" y1="72.8092" x2="129.717" y2="152.78" gradientUnits="userSpaceOnUse">
<stop stop-color="white"/>
<stop offset="1" stop-color="white" stop-opacity="0"/>
</linearGradient>
<linearGradient id="paint5_linear_2_122" x1="182.513" y1="74.5477" x2="182.513" y2="137.133" gradientUnits="userSpaceOnUse">
<stop stop-color="white"/>
<stop offset="1" stop-color="white" stop-opacity="0"/>
</linearGradient>
<linearGradient id="paint6_linear_2_122" x1="178.566" y1="72.8092" x2="178.566" y2="130.603" gradientUnits="userSpaceOnUse">
<stop stop-color="white"/>
<stop offset="1" stop-color="white" stop-opacity="0"/>
</linearGradient>
</defs>
</svg>
